<svg width="68" height="12" viewBox="0 0 68 12" fill="none" xmlns="http://www.w3.org/2000/svg">
<path opacity="0.35" d="M43.502 2.66862C43.502 1.472 44.472 0.501953 45.6686 0.501953H62.3353C63.5319 0.501953 64.502 1.472 64.502 2.66862V8.66862C64.502 9.86524 63.5319 10.8353 62.3353 10.8353H45.6686C44.472 10.8353 43.502 9.86524 43.502 8.66862V2.66862Z" stroke="#F9FAFC"/>
<path opacity="0.4" d="M66.002 3.66797V7.66797C66.8067 7.32919 67.33 6.5411 67.33 5.66797C67.33 4.79484 66.8067 4.00675 66.002 3.66797Z" fill="#F9FAFC"/>
<path d="M45.002 3.10195C45.002 2.49444 45.4944 2.00195 46.102 2.00195H61.902C62.5095 2.00195 63.002 2.49444 63.002 3.10195V8.23529C63.002 8.8428 62.5095 9.33529 61.902 9.33529H46.102C45.4944 9.33529 45.002 8.8428 45.002 8.23529V3.10195Z" fill="#F9FAFC"/>
<path fill-rule="evenodd" clip-rule="evenodd" d="M30.3319 2.27733C32.5478 2.27742 34.679 3.12886 36.2849 4.65566C36.4059 4.77354 36.5991 4.77205 36.7183 4.65233L37.8743 3.48566C37.9346 3.42494 37.9682 3.34269 37.9677 3.25711C37.9672 3.17153 37.9326 3.08967 37.8716 3.02966C33.6565 -1.00989 27.0067 -1.00989 22.7916 3.02966C22.7305 3.08963 22.6959 3.17146 22.6953 3.25704C22.6948 3.34262 22.7283 3.42489 22.7886 3.48566L23.9449 4.65233C24.0639 4.77223 24.2574 4.77372 24.3783 4.65566C25.9844 3.12876 28.1158 2.27732 30.3319 2.27733ZM30.3319 6.07299C31.5494 6.07292 32.7234 6.52545 33.6259 7.34266C33.748 7.45864 33.9403 7.45613 34.0593 7.33699L35.2139 6.17033C35.2747 6.10913 35.3085 6.02612 35.3076 5.93985C35.3067 5.85359 35.2713 5.77127 35.2093 5.71133C32.4611 3.15494 28.2051 3.15494 25.4569 5.71133C25.3948 5.77127 25.3594 5.85363 25.3586 5.93992C25.3578 6.02621 25.3917 6.10922 25.4526 6.17033L26.6069 7.33699C26.7259 7.45613 26.9182 7.45864 27.0403 7.34266C27.9421 6.52599 29.1152 6.0735 30.3319 6.07299ZM32.6449 8.62681C32.6467 8.71332 32.6127 8.79672 32.5509 8.85733L30.5536 10.873C30.495 10.9322 30.4152 10.9656 30.3319 10.9656C30.2486 10.9656 30.1688 10.9322 30.1103 10.873L28.1126 8.85733C28.0509 8.79668 28.0169 8.71325 28.0188 8.62674C28.0206 8.54023 28.058 8.45831 28.1223 8.40033C29.3978 7.32144 31.266 7.32144 32.5416 8.40033C32.6058 8.45836 32.6431 8.54031 32.6449 8.62681Z" fill="#F9FAFC"/>
<path fill-rule="evenodd" clip-rule="evenodd" d="M16.668 0.335938H15.668C15.1157 0.335938 14.668 0.783653 14.668 1.33594V10.0026C14.668 10.5549 15.1157 11.0026 15.668 11.0026H16.668C17.2203 11.0026 17.668 10.5549 17.668 10.0026V1.33594C17.668 0.783653 17.2203 0.335938 16.668 0.335938ZM11.0013 2.66927H12.0013C12.5536 2.66927 13.0013 3.11699 13.0013 3.66927V10.0026C13.0013 10.5549 12.5536 11.0026 12.0013 11.0026H11.0013C10.449 11.0026 10.0013 10.5549 10.0013 10.0026V3.66927C10.0013 3.11699 10.449 2.66927 11.0013 2.66927ZM7.33464 5.0026H6.33464C5.78235 5.0026 5.33464 5.45032 5.33464 6.0026V10.0026C5.33464 10.5549 5.78235 11.0026 6.33464 11.0026H7.33464C7.88692 11.0026 8.33464 10.5549 8.33464 10.0026V6.0026C8.33464 5.45032 7.88692 5.0026 7.33464 5.0026ZM2.66797 7.0026H1.66797C1.11568 7.0026 0.667969 7.45032 0.667969 8.0026V10.0026C0.667969 10.5549 1.11568 11.0026 1.66797 11.0026H2.66797C3.22025 11.0026 3.66797 10.5549 3.66797 10.0026V8.0026C3.66797 7.45032 3.22025 7.0026 2.66797 7.0026Z" fill="#F9FAFC"/>
</svg>
